. 
 
http://www.torrenting.com          :     Once & For all ;)


               www . Torrenting . Com 

(((((((((((((= Enjoy No RAR releases =))))))))))))))))))))


...................................NFO:....................................

.[IMG]http://img825.imageshack.us/img825/1594/pibcombobrdfront.jpg[/IMG]


[color=blue][size=5][b]Puss.In.Boots.2011.BDRip.XVID.AC3.HQ.Hive-CM8[/b][/size][/color]


[b] Thx Hive

CM8 Doing It Right The First Time :D


Source: Bluray

Video: 720x304 @bitrate 2000 2pass
Audio: English DTS to AC3 5.1 @448
Subs: Yes, English in srt /subs
Sample: Yes, included[/b]
 
http://www.imdb.com/title/tt0448694/


General
Complete name                  : Puss.In.Boots.2011.BDRip.XVID.AC3.HQ.Hive-CM8.avi
Format                         : AVI
Format/Info                    : Audio Video Interleave
File size                      : 1.55 GiB
Duration                       : 1h 30mn
Overall bit rate               : 2 458 Kbps
Writing application            : Nandub v1.0rc2
Writing library                : Nandub build 1853/release

Video
ID                             : 0
Format                         : MPEG-4 Visual
Format profile                 : Advanced Simple@L5
Format settings, BVOP          : 2
Format settings, QPel          : Yes
Format settings, GMC           : No warppoints
Format settings, Matrix        : Default (H.263)
Muxing mode                    : Packed bitstream
Codec ID                       : XVID
Codec ID/Hint                  : XviD
Duration                       : 1h 30mn
Bit rate                       : 2 001 Kbps
Width                          : 720 pixels
Height                         : 304 pixels
Display aspect ratio           : 2.40:1
Frame rate                     : 23.976 fps
Color space                    : YUV
Chroma subsampling             : 4:2:0
Bit depth                      : 8 bits
Scan type                      : Progressive
Compression mode               : Lossy
Bits/(Pixel*Frame)             : 0.381
Stream size                    : 1.26 GiB (81%)
Writing library                : XviD 1.2.1 (UTC 2008-12-04)

Audio
ID                             : 1
Format                         : AC-3
Format/Info                    : Audio Coding 3
Mode extension                 : CM (complete main)
Codec ID                       : 2000
Duration                       : 1h 30mn
Bit rate mode                  : Constant
Bit rate                       : 448 Kbps
Channel(s)                     : 6 channels
Channel positions              : Front: L C R, Side: L R, LFE
Sampling rate                  : 48.0 KHz
Bit depth                      : 16 bits
Compression mode               : Lossy
Stream size                    : 289 MiB (18%)
Alignment                      : Split accross interleaves
Interleave, duration           : 42 ms (1.00 video frame)
Interleave, preload duration   : 500 ms


Plot:
A story about the events leading up to the sword fighting cat's
meeting with Shrek and his friends.


Cast:
Antonio Banderas     ...    Puss in Boots (voice)
Salma Hayek          ...    Kitty Softpaws (voice)
Zach Galifianakis    ...    Humpty Dumpty (voice)
Billy Bob Thornton   ...    Jack (voice)
Amy Sedaris          ...    Jill (voice)


[img]http://img843.imageshack.us/img843/2427/37978927.png[/img]
[img]http://img6.imageshack.us/img6/1627/puput.png[/img]
[img]http://img826.imageshack.us/img826/3329/pupupupupu.png[/img]
[img]http://img811.imageshack.us/img811/5172/pupupu.png[/img]
[img]http://img703.imageshack.us/img703/3821/pupupupu.png[/img]
[img]http://img844.imageshack.us/img844/284/pupupupupupu.png[/img]



Greetz

ViSiON,SPK,SceneLovers,PRESTiGE,SANTi,3LT0N,YanKeeS,COPYxRIGHT,THC,T0XiC
D2U,LKRG,Feel-Free,FLAWL3SS,WBZ,BHRG,26K,NOVA,SeToNeUp,TED,MAGNET,jtr
Unevano,Rapeseed,SAFC,goldadvance,KaN1vE,Pinnz,Wayne
Mr Hive,and most P2P groups
Great Work Guys :D

LOOKING FOR ANYTHING YOU WANT TO LOOK AND SOUND BETTER

CM8@hushmail.com